<?xml version="1.0" encoding="UTF-8" standalone="no"?>
<svg
   xmlns:svg="http://www.w3.org/2000/svg"
   xmlns="http://www.w3.org/2000/svg"
   width="401.29407"
   height="401.29404"
   viewBox="0 0 401.29407 401.29404"
   version="1.1">
  <g
     transform="translate(100.66583,-852.27527)">
    <g>
      <g
         transform="matrix(0.41543529,-0.17207893,0.17207893,0.41543529,-122.74025,632.70587)">
        <path
           style="fill:#000000;fill-opacity:1;fill-rule:evenodd;stroke:#000000;stroke-width:2.22388315px;stroke-linecap:butt;stroke-linejoin:miter;stroke-opacity:1"
           d="m 100,852.36216 -30,170.00004 30,30 0,-200.00004 z"/>
        <path
           style="fill:#ffffff;fill-opacity:1;fill-rule:evenodd;stroke:#000000;stroke-width:2.22388315px;stroke-linecap:butt;stroke-linejoin:miter;stroke-opacity:1"
           d="m 99.962367,852.36216 30.000003,170.00004 -30.000003,30 0,-200.00004 z"/>
        <path
           style="fill:#000000;fill-opacity:1;fill-rule:evenodd;stroke:#000000;stroke-width:2.22388315px;stroke-linecap:butt;stroke-linejoin:miter;stroke-opacity:1"
           d="m 99.96237,1253.4824 30,-170 -30,-30 0,200 z"/>
        <path
           style="fill:#ffffff;fill-opacity:1;fill-rule:evenodd;stroke:#000000;stroke-width:2.22388315px;stroke-linecap:butt;stroke-linejoin:miter;stroke-opacity:1"
           d="m 100,1253.4824 -30,-170 30,-30 0,200 z"/>
        <path
           style="fill:#000000;fill-opacity:1;fill-rule:evenodd;stroke:#000000;stroke-width:2.22388315px;stroke-linecap:butt;stroke-linejoin:miter;stroke-opacity:1"
           d="m 300.54134,1052.9411 -170.00004,-30 -30,30 200.00004,0 z"/>
        <path
           style="fill:#ffffff;fill-opacity:1;fill-rule:evenodd;stroke:#000000;stroke-width:2.22388315px;stroke-linecap:butt;stroke-linejoin:miter;stroke-opacity:1"
           d="m 300.54134,1052.9035 -170.00004,30 -30,-30 200.00004,0 z"/>
        <path
           style="fill:#000000;fill-opacity:1;fill-rule:evenodd;stroke:#000000;stroke-width:2.22388315px;stroke-linecap:butt;stroke-linejoin:miter;stroke-opacity:1"
           d="m -100.57894,1052.9035 170.00004,30 30,-30 -200.00004,0 z"/>
        <path
           style="fill:#ffffff;fill-opacity:1;fill-rule:evenodd;stroke:#000000;stroke-width:2.22388315px;stroke-linecap:butt;stroke-linejoin:miter;stroke-opacity:1"
           d="m -100.57894,1052.9411 170.00004,-30 30,30 -200.00004,0 z"/>
      </g>
      <g transform="matrix(0.17207893,-0.41543529,0.41543529,0.17207893,-354.64453,913.27227)">
        <path
           style="fill:#000000;fill-opacity:1;fill-rule:evenodd;stroke:#000000;stroke-width:2.22388315px;stroke-linecap:butt;stroke-linejoin:miter;stroke-opacity:1"
           d="m 100,852.36216 -30,170.00004 30,30 0,-200.00004 z"/>
        <path
           style="fill:#ffffff;fill-opacity:1;fill-rule:evenodd;stroke:#000000;stroke-width:2.22388315px;stroke-linecap:butt;stroke-linejoin:miter;stroke-opacity:1"
           d="m 99.962367,852.36216 30.000003,170.00004 -30.000003,30 0,-200.00004 z"/>
        <path
           style="fill:#000000;fill-opacity:1;fill-rule:evenodd;stroke:#000000;stroke-width:2.22388315px;stroke-linecap:butt;stroke-linejoin:miter;stroke-opacity:1"
           d="m 99.96237,1253.4824 30,-170 -30,-30 0,200 z"/>
        <path
           style="fill:#ffffff;fill-opacity:1;fill-rule:evenodd;stroke:#000000;stroke-width:2.22388315px;stroke-linecap:butt;stroke-linejoin:miter;stroke-opacity:1"
           d="m 100,1253.4824 -30,-170 30,-30 0,200 z"/>
        <path
           style="fill:#000000;fill-opacity:1;fill-rule:evenodd;stroke:#000000;stroke-width:2.22388315px;stroke-linecap:butt;stroke-linejoin:miter;stroke-opacity:1"
           d="m 300.54134,1052.9411 -170.00004,-30 -30,30 200.00004,0 z"/>
        <path
           style="fill:#ffffff;fill-opacity:1;fill-rule:evenodd;stroke:#000000;stroke-width:2.22388315px;stroke-linecap:butt;stroke-linejoin:miter;stroke-opacity:1"
           d="m 300.54134,1052.9035 -170.00004,30 -30,-30 200.00004,0 z"/>
        <path
           style="fill:#000000;fill-opacity:1;fill-rule:evenodd;stroke:#000000;stroke-width:2.22388315px;stroke-linecap:butt;stroke-linejoin:miter;stroke-opacity:1"
           d="m -100.57894,1052.9035 170.00004,30 30,-30 -200.00004,0 z"/>
        <path
           style="fill:#ffffff;fill-opacity:1;fill-rule:evenodd;stroke:#000000;stroke-width:2.22388315px;stroke-linecap:butt;stroke-linejoin:miter;stroke-opacity:1"
           d="m -100.57894,1052.9411 170.00004,-30 30,30 -200.00004,0 z"/>
      </g>
      <path
         transform="translate(0,852.36216)"
         d="M 100,37.150391 A 162.84999,162.84999 0 0 0 -62.849609,200 162.84999,162.84999 0 0 0 100,362.84961 162.84999,162.84999 0 0 0 262.84961,200 162.84999,162.84999 0 0 0 100,37.150391 Z M 100,65.5 A 134.5,134.5 0 0 1 234.5,200 134.5,134.5 0 0 1 100,334.5 134.5,134.5 0 0 1 -34.5,200 134.5,134.5 0 0 1 100,65.5 Z"
         style="opacity:1;fill:#000000;fill-opacity:1;stroke:#000000;stroke-width:1;stroke-miterlimit:4;stroke-dasharray:none;stroke-opacity:1"/>
      <g>
        <path
           style="fill:#000000;fill-opacity:1;fill-rule:evenodd;stroke:#000000;stroke-width:1px;stroke-linecap:butt;stroke-linejoin:miter;stroke-opacity:1"
           d="m 185.05505,967.86438 -84.82832,59.37982 0,25.4485 84.82832,-84.82832 z"/>
        <path
           style="fill:#ffffff;fill-opacity:1;fill-rule:evenodd;stroke:#000000;stroke-width:1px;stroke-linecap:butt;stroke-linejoin:miter;stroke-opacity:1"
           d="m 185.03909,967.84842 -59.37983,84.82828 -25.44849,0 84.82832,-84.82828 z"/>
        <path
           style="fill:#000000;fill-opacity:1;fill-rule:evenodd;stroke:#000000;stroke-width:1px;stroke-linecap:butt;stroke-linejoin:miter;stroke-opacity:1"
           d="m 14.90734,1137.9802 84.828306,-59.3798 0,-25.4485 -84.828306,84.8283 z"/>
        <path
           style="fill:#ffffff;fill-opacity:1;fill-rule:evenodd;stroke:#000000;stroke-width:1px;stroke-linecap:butt;stroke-linejoin:miter;stroke-opacity:1"
           d="m 14.9233,1137.9961 59.379814,-84.8283 25.448492,0 -84.828306,84.8283 z"/>
        <path
           style="fill:#000000;fill-opacity:1;fill-rule:evenodd;stroke:#000000;stroke-width:1px;stroke-linecap:butt;stroke-linejoin:miter;stroke-opacity:1"
           d="m 185.0391,1137.9962 -59.37983,-84.8284 -25.44849,0 84.82832,84.8284 z"/>
        <path
           style="fill:#ffffff;fill-opacity:1;fill-rule:evenodd;stroke:#000000;stroke-width:1px;stroke-linecap:butt;stroke-linejoin:miter;stroke-opacity:1"
           d="m 185.05505,1137.9802 -84.82832,-59.3798 0,-25.4485 84.82832,84.8283 z"/>
        <path
           style="fill:#000000;fill-opacity:1;fill-rule:evenodd;stroke:#000000;stroke-width:1px;stroke-linecap:butt;stroke-linejoin:miter;stroke-opacity:1"
           d="m 14.923283,967.84844 59.379831,84.82836 25.448492,0 -84.828323,-84.82836 z"/>
        <path
           style="fill:#ffffff;fill-opacity:1;fill-rule:evenodd;stroke:#000000;stroke-width:1px;stroke-linecap:butt;stroke-linejoin:miter;stroke-opacity:1"
           d="m 14.907335,967.86438 84.828323,59.37982 0,25.4485 -84.828323,-84.82832 z"/>
      </g>
      <g>
        <path
           style="fill:#000000;fill-opacity:1;fill-rule:evenodd;stroke:#000000;stroke-width:1px;stroke-linecap:butt;stroke-linejoin:miter;stroke-opacity:1"
           d="m 100,852.36216 -30,170.00004 30,30 0,-200.00004 z"/>
        <path
           style="fill:#ffffff;fill-opacity:1;fill-rule:evenodd;stroke:#000000;stroke-width:1px;stroke-linecap:butt;stroke-linejoin:miter;stroke-opacity:1"
           d="m 99.962367,852.36216 30.000003,170.00004 -30.000003,30 0,-200.00004 z"/>
        <path
           style="fill:#000000;fill-opacity:1;fill-rule:evenodd;stroke:#000000;stroke-width:1px;stroke-linecap:butt;stroke-linejoin:miter;stroke-opacity:1"
           d="m 99.96237,1253.4824 30,-170 -30,-30 0,200 z"/>
        <path
           style="fill:#ffffff;fill-opacity:1;fill-rule:evenodd;stroke:#000000;stroke-width:1px;stroke-linecap:butt;stroke-linejoin:miter;stroke-opacity:1"
           d="m 100,1253.4824 -30,-170 30,-30 0,200 z"/>
        <path
           style="fill:#000000;fill-opacity:1;fill-rule:evenodd;stroke:#000000;stroke-width:1px;stroke-linecap:butt;stroke-linejoin:miter;stroke-opacity:1"
           d="m 300.54134,1052.9411 -170.00004,-30 -30,30 200.00004,0 z"/>
        <path
           style="fill:#ffffff;fill-opacity:1;fill-rule:evenodd;stroke:#000000;stroke-width:1px;stroke-linecap:butt;stroke-linejoin:miter;stroke-opacity:1"
           d="m 300.54134,1052.9035 -170.00004,30 -30,-30 200.00004,0 z"/>
        <path
           style="fill:#000000;fill-opacity:1;fill-rule:evenodd;stroke:#000000;stroke-width:1px;stroke-linecap:butt;stroke-linejoin:miter;stroke-opacity:1"
           d="m -100.57894,1052.9035 170.00004,30 30,-30 -200.00004,0 z"/>
        <path
           style="fill:#ffffff;fill-opacity:1;fill-rule:evenodd;stroke:#000000;stroke-width:1px;stroke-linecap:butt;stroke-linejoin:miter;stroke-opacity:1"
           d="m -100.57894,1052.9411 170.00004,-30 30,30 -200.00004,0 z"/>
      </g>
    </g>
  </g>
</svg>
